<svg width="22" height="20" viewBox="0 0 22 20" fill="none" xmlns="http://www.w3.org/2000/svg">
<path d="M4.44444 2.22333C4.44415 2.8127 4.20974 3.37782 3.79278 3.79436C3.37583 4.2109 2.81048 4.44474 2.22111 4.44444C1.63174 4.44415 1.06663 4.20974 0.650088 3.79278C0.233549 3.37583 -0.000294407 2.81048 2.78179e-07 2.22111C0.000294963 1.63174 0.234704 1.06663 0.65166 0.650088C1.06862 0.233549 1.63396 -0.000294407 2.22333 2.78179e-07C2.8127 0.000294963 3.37782 0.234704 3.79436 0.65166C4.2109 1.06862 4.44474 1.63396 4.44444 2.22333ZM4.51111 6.09H0.0666669V20.0011H4.51111V6.09ZM11.5333 6.09H7.11111V20.0011H11.4889V12.7011C11.4889 8.63444 16.7889 8.25667 16.7889 12.7011V20.0011H21.1778V11.19C21.1778 4.33444 13.3333 4.59 11.4889 7.95667L11.5333 6.09Z" fill="white"/>
</svg>
