<svg width="282" height="115" viewBox="0 0 282 115" fill="none" xmlns="http://www.w3.org/2000/svg">
<path d="M93.5928 0.285983V99.9012L109.44 90.8332V78.9041L119.806 84.8907L135.719 75.7787V0.263977H93.6148L93.5928 0.285983ZM109.44 60.6361V16.2649H119.806V66.4026L119.63 66.5127L109.44 60.6361Z" fill="white"/>
<path d="M16.7572 24.6286V16.287H24.7907V29.2506L40.6375 38.4066V0.286072H0.844299V75.8448L16.6911 84.8907L24.7907 89.5348L40.6375 98.6027V47.1004L24.7907 37.9664L19.9706 35.1932L20.0366 53.5051L24.7907 56.2563V71.0247L16.7572 66.4247V51.6123V24.6286Z" fill="white"/>
<path d="M71.9574 29.1626V16.287H63.8799V33.5425L71.9574 38.2085L87.8043 47.3425V103.247L71.9574 112.315L68.2598 114.428L63.8799 111.918L48.033 102.829V51.3702L63.8799 60.5262V93.3865L68.2598 95.9175L71.9574 93.8046V56.4764L63.8799 51.8104L48.033 42.6544V0.286072H87.8043V38.3186L71.9574 29.1626Z" fill="white"/>
<path d="M166.642 6.82296H160.15V9.4421H163.055V9.61817C163.011 10.1024 162.857 10.5206 162.593 10.8727C162.329 11.2249 161.998 11.511 161.558 11.6871C161.14 11.8851 160.634 11.9732 160.084 11.9732C159.379 11.9732 158.763 11.7971 158.235 11.445C157.707 11.0928 157.31 10.5646 157.024 9.88228C156.738 9.19998 156.584 8.38563 156.584 7.43922C156.584 6.49281 156.716 5.67846 156.98 5.04019C157.244 4.3799 157.619 3.89569 158.125 3.54354C158.631 3.19139 159.225 3.03731 159.908 3.03731C160.59 3.03731 161.228 3.21339 161.712 3.54354C162.197 3.87368 162.549 4.33588 162.747 4.93013L162.791 5.04019H166.444V4.93013C166.312 3.98372 165.96 3.14737 165.366 2.39904C164.772 1.65072 164.023 1.07847 163.077 0.638279C162.153 0.220097 161.074 0 159.886 0C158.411 0 157.156 0.308133 156.1 0.902391C155.043 1.49665 154.229 2.35502 153.635 3.4775C153.063 4.59999 152.776 5.94257 152.776 7.52726C152.776 9.13396 153.063 10.4986 153.635 11.621C154.207 12.7435 155.043 13.6019 156.122 14.2182C157.2 14.8124 158.477 15.1206 159.974 15.1206C161.36 15.1206 162.549 14.8564 163.539 14.3502C164.53 13.822 165.278 13.0957 165.806 12.1273C166.334 11.1588 166.598 10.0364 166.598 8.69377V6.86698L166.642 6.82296Z" fill="white"/>
<path d="M172.189 9.79419H174.082L176.569 14.8124H180.728L177.823 9.24395C178.572 8.91381 179.188 8.36356 179.628 7.61524C180.068 6.86692 180.31 6.03055 180.31 5.08414C180.31 4.02768 180.09 3.16932 179.672 2.443C179.254 1.71669 178.616 1.16645 177.801 0.792285C176.987 0.418122 175.974 0.220032 174.808 0.220032H168.491V14.7903H172.189V9.77217V9.79419ZM172.189 3.05926H174.368C175.028 3.05926 175.556 3.23534 175.93 3.6095C176.326 3.98367 176.525 4.46787 176.525 5.08414C176.525 5.72242 176.327 6.20663 175.952 6.58079C175.556 6.95495 175.05 7.13103 174.39 7.13103H172.189V3.05926Z" fill="white"/>
<path d="M186.165 11.6209H190.919L191.821 14.8123H195.717L190.809 0.242004H186.275L181.367 14.8123H185.262L186.165 11.6209ZM188.564 3.41138L190.148 8.93577H186.935L188.498 3.41138H188.564Z" fill="white"/>
<path d="M199.173 14.8123H202.87V9.81615L207.888 0.242004H203.949L201.065 6.29463H200.977L198.094 0.242004H194.154L199.173 9.81615V14.8123Z" fill="white"/>
<path d="M160.458 29.1847L158.961 28.8985C158.169 28.7445 157.618 28.5684 157.244 28.3263C156.87 28.0842 156.716 27.7981 156.716 27.4019C156.716 27.1158 156.804 26.8737 156.958 26.6536C157.134 26.4335 157.354 26.2574 157.684 26.1254C158.015 25.9933 158.389 25.9273 158.829 25.9273C159.269 25.9273 159.665 25.9933 160.017 26.1254C160.348 26.2574 160.634 26.4335 160.854 26.6536C161.074 26.8737 161.184 27.1598 161.228 27.4899V27.6H164.683V27.3799C164.639 26.4995 164.375 25.7292 163.913 25.0689C163.451 24.4086 162.791 23.9024 161.932 23.5502C161.074 23.1981 160.039 23 158.829 23C157.706 23 156.716 23.1981 155.858 23.5722C154.999 23.9464 154.295 24.4966 153.811 25.1789C153.327 25.8612 153.062 26.6756 153.062 27.622C153.062 28.7445 153.437 29.6689 154.185 30.3732C154.933 31.0775 156.034 31.5617 157.464 31.8258L158.961 32.1119C159.819 32.266 160.414 32.4641 160.788 32.6842C161.14 32.9043 161.316 33.2344 161.316 33.6306C161.316 33.9387 161.228 34.2029 161.03 34.445C160.832 34.6651 160.568 34.8631 160.216 34.9952C159.863 35.1273 159.445 35.1933 158.939 35.1933C158.433 35.1933 158.037 35.1273 157.662 34.9952C157.288 34.8631 156.958 34.6871 156.716 34.445C156.474 34.2029 156.32 33.9387 156.254 33.6306V33.5205H152.798V33.6966C152.864 34.621 153.15 35.4134 153.657 36.0737C154.163 36.734 154.845 37.2182 155.748 37.5703C156.65 37.9225 157.684 38.0985 158.895 38.0985C160.172 38.0985 161.272 37.9004 162.196 37.5263C163.121 37.1521 163.803 36.5799 164.287 35.8756C164.772 35.1713 165.014 34.3129 165.014 33.3445C165.014 32.156 164.639 31.2536 163.913 30.5933C163.187 29.933 162.042 29.4488 160.502 29.1627H160.458V29.1847Z" fill="white"/>
<path d="M170.406 32.0019H176.195V37.8784H179.914V23.3081H176.195V29.0306H170.406V23.3081H166.687V37.8784H170.406V32.0019Z" fill="white"/>
<path d="M186.099 34.687H190.853L191.755 37.8784H195.651L190.743 23.3081H186.209L181.301 37.8784H185.197L186.099 34.687ZM188.498 26.4775L190.083 32.0019H186.869L188.432 26.4775H188.498Z" fill="white"/>
<path d="M209.099 34.489C209.649 33.3885 209.935 32.0679 209.935 30.5273C209.935 28.9646 209.649 27.644 209.099 26.5875C208.549 25.5311 207.756 24.7167 206.7 24.1665C205.665 23.6163 204.411 23.3301 202.936 23.3301H197.016V37.9005H202.936C204.411 37.9005 205.665 37.6143 206.7 37.0201C207.734 36.4478 208.527 35.5895 209.077 34.489H209.099ZM206.15 30.5273C206.15 31.4957 206.018 32.31 205.731 32.9483C205.445 33.5866 205.027 34.0708 204.477 34.4009C203.927 34.7311 203.244 34.8851 202.452 34.8851H200.713V26.3014H202.452C203.222 26.3014 203.883 26.4555 204.455 26.7856C205.005 27.1158 205.423 27.578 205.709 28.1942C205.995 28.8105 206.15 29.5809 206.15 30.5053V30.5273Z" fill="white"/>
<path d="M224.836 34.621C225.43 33.4985 225.716 32.1559 225.716 30.6152C225.716 29.0526 225.43 27.71 224.836 26.5875C224.263 25.465 223.427 24.6066 222.349 23.9904C221.27 23.3741 219.994 23.066 218.519 23.066C217.044 23.066 215.79 23.3741 214.711 23.9904C213.633 24.6066 212.796 25.465 212.224 26.5875C211.652 27.71 211.344 29.0526 211.344 30.5932C211.344 32.1559 211.63 33.4985 212.224 34.621C212.818 35.7435 213.633 36.6239 214.711 37.2401C215.79 37.8564 217.066 38.1645 218.519 38.1645C219.972 38.1645 221.292 37.8564 222.371 37.2401C223.449 36.6239 224.263 35.7655 224.858 34.621H224.836ZM221.93 30.6152C221.93 31.5176 221.798 32.31 221.512 32.9923C221.248 33.6526 220.852 34.1808 220.324 34.555C219.817 34.9291 219.201 35.1052 218.497 35.1052C217.793 35.1052 217.22 34.9291 216.692 34.555C216.186 34.1808 215.79 33.6746 215.504 33.0143C215.217 32.354 215.085 31.5617 215.085 30.6373C215.085 29.6908 215.217 28.8985 215.504 28.2382C215.79 27.5779 216.186 27.0497 216.692 26.6975C217.198 26.3454 217.815 26.1473 218.475 26.1473C219.135 26.1473 219.773 26.3234 220.302 26.6975C220.83 27.0717 221.204 27.5779 221.49 28.2382C221.776 28.8985 221.908 29.6908 221.908 30.6152H221.93Z" fill="white"/>
<path d="M240.088 32.9263H240.022L237.667 23.3081H234.542L232.187 32.9263H232.121L230.14 23.3081H226.31L230.118 37.8784H233.772L236.061 29.1406H236.149L238.438 37.8784H242.091L245.899 23.3081H242.069L240.088 32.9263Z" fill="white"/>
<path d="M249.641 37.6143C250.543 37.9664 251.577 38.1425 252.788 38.1425C254.065 38.1425 255.165 37.9444 256.089 37.5703C257.014 37.1961 257.696 36.6239 258.18 35.9196C258.664 35.2153 258.907 34.3569 258.907 33.3885C258.907 32.1999 258.532 31.2976 257.806 30.6373C257.08 29.977 255.935 29.4928 254.395 29.2067L252.898 28.9205C252.106 28.7665 251.555 28.5904 251.181 28.3483C250.807 28.1062 250.653 27.8201 250.653 27.4239C250.653 27.1378 250.741 26.8957 250.895 26.6756C251.071 26.4555 251.291 26.2794 251.621 26.1473C251.952 26.0153 252.326 25.9492 252.766 25.9492C253.206 25.9492 253.602 26.0153 253.954 26.1473C254.285 26.2794 254.571 26.4555 254.791 26.6756C255.011 26.8957 255.121 27.1818 255.165 27.5119V27.622H258.62V27.4019C258.576 26.5215 258.312 25.7512 257.85 25.0909C257.388 24.4306 256.728 23.9244 255.869 23.5722C255.011 23.2201 253.976 23.022 252.766 23.022C251.643 23.022 250.653 23.2201 249.795 23.5942C248.936 23.9684 248.232 24.5186 247.748 25.2009C247.264 25.8832 246.999 26.6976 246.999 27.644C246.999 28.7665 247.374 29.6909 248.122 30.3952C248.87 31.0995 249.971 31.5837 251.401 31.8478L252.898 32.1339C253.756 32.288 254.351 32.4861 254.725 32.7062C255.077 32.9263 255.253 33.2564 255.253 33.6526C255.253 33.9607 255.165 34.2248 254.967 34.4669C254.769 34.687 254.505 34.8851 254.153 35.0172C253.8 35.1492 253.382 35.2153 252.876 35.2153C252.37 35.2153 251.974 35.1492 251.599 35.0172C251.225 34.8851 250.895 34.709 250.653 34.4669C250.411 34.2248 250.257 33.9607 250.191 33.6526V33.5425H246.735V33.7186C246.801 34.643 247.087 35.4354 247.594 36.0956C248.1 36.7559 248.782 37.2401 249.685 37.5923H249.641V37.6143Z" fill="white"/>
<path d="M162.262 46.9903C161.47 46.5721 160.524 46.3521 159.445 46.3521H153.238V60.9224H156.936V56.6525H159.445C160.524 56.6525 161.47 56.4324 162.262 56.0142C163.077 55.5961 163.693 55.0018 164.133 54.2315C164.573 53.4611 164.793 52.5587 164.793 51.5243C164.793 50.4678 164.573 49.5434 164.133 48.7731C163.693 48.0028 163.077 47.4085 162.262 46.9683V46.9903ZM161.052 51.5463C161.052 52.2946 160.832 52.8669 160.392 53.263C159.951 53.6592 159.335 53.8573 158.565 53.8573H156.958V49.2133H158.565C159.357 49.2133 159.951 49.4114 160.392 49.8075C160.832 50.2037 161.052 50.776 161.052 51.5243V51.5463Z" fill="white"/>
<path d="M177.581 53.7252C178.043 52.9768 178.263 52.1405 178.263 51.1941C178.263 50.1376 178.043 49.2792 177.625 48.5529C177.207 47.8266 176.569 47.2764 175.754 46.9022C174.94 46.528 173.927 46.33 172.761 46.33H166.444V60.9003H170.142V55.8821H172.035L174.522 60.9003H178.681L175.776 55.3319C176.524 55.0017 177.141 54.4515 177.581 53.7032V53.7252ZM174.478 51.2161C174.478 51.8323 174.28 52.3166 173.905 52.6907C173.509 53.0649 173.003 53.241 172.343 53.241H170.142V49.1692H172.321C172.981 49.1692 173.509 49.3453 173.883 49.7194C174.28 50.0936 174.478 50.5778 174.478 51.1941V51.2161Z" fill="white"/>
<path d="M190.721 47.0124C189.642 46.3961 188.366 46.088 186.891 46.088C185.416 46.088 184.162 46.3961 183.083 47.0124C182.005 47.6287 181.168 48.487 180.596 49.6095C180.024 50.732 179.716 52.0746 179.716 53.6153C179.716 55.1779 180.002 56.5205 180.596 57.643C181.191 58.7655 182.005 59.6459 183.083 60.2621C184.162 60.8784 185.438 61.1865 186.891 61.1865C188.344 61.1865 189.664 60.8784 190.743 60.2621C191.821 59.6459 192.636 58.7875 193.23 57.643C193.824 56.5205 194.11 55.178 194.11 53.6373C194.11 52.0746 193.824 50.732 193.23 49.6095C192.658 48.487 191.821 47.6287 190.743 47.0124H190.721ZM190.302 53.6373C190.302 54.5397 190.17 55.332 189.884 56.0143C189.62 56.6746 189.224 57.2028 188.696 57.577C188.19 57.9511 187.573 58.1272 186.869 58.1272C186.165 58.1272 185.592 57.9511 185.064 57.577C184.558 57.2028 184.162 56.6966 183.876 56.0363C183.59 55.376 183.458 54.5837 183.458 53.6593C183.458 52.7129 183.59 51.9205 183.876 51.2603C184.162 50.6 184.558 50.0717 185.064 49.7196C185.57 49.3674 186.187 49.1693 186.847 49.1693C187.507 49.1693 188.146 49.3454 188.674 49.7196C189.202 50.0937 189.576 50.6 189.862 51.2603C190.148 51.9205 190.281 52.7129 190.281 53.6373H190.302Z" fill="white"/>
<path d="M194.484 49.3233H198.512V60.9224H202.21V49.3233H206.216V46.3521H194.484V49.3233Z" fill="white"/>
<path d="M207.778 60.9224H217.771V57.9511H211.498V55.0018H217.396V52.2066H211.498V49.3233H217.771V46.3521H207.778V60.9224Z" fill="white"/>
<path d="M229.524 55.4861C229.436 56.0363 229.26 56.4985 228.996 56.8947C228.731 57.2909 228.379 57.599 227.961 57.7971C227.543 57.9952 227.059 58.1052 226.53 58.1052C225.848 58.1052 225.276 57.9291 224.77 57.577C224.263 57.2248 223.889 56.6966 223.625 56.0363C223.361 55.354 223.229 54.5617 223.229 53.6153C223.229 52.6689 223.361 51.8765 223.625 51.2162C223.889 50.5559 224.285 50.0497 224.77 49.6976C225.254 49.3454 225.848 49.1693 226.508 49.1693C227.081 49.1693 227.565 49.2794 227.983 49.4995C228.401 49.7196 228.731 50.0277 228.996 50.4239C229.26 50.82 229.414 51.2602 229.502 51.7665V51.8985H233.089V51.8105C233.045 50.71 232.737 49.7416 232.187 48.8832C231.615 48.0248 230.866 47.3425 229.876 46.8363C228.907 46.3301 227.785 46.088 226.508 46.088C225.056 46.088 223.801 46.3961 222.745 46.9904C221.688 47.5847 220.852 48.443 220.28 49.5655C219.707 50.688 219.421 52.0526 219.421 53.6153C219.421 55.2 219.707 56.5645 220.28 57.687C220.852 58.8095 221.666 59.6679 222.723 60.2842C223.779 60.8784 225.034 61.1865 226.486 61.1865C227.741 61.1865 228.863 60.9444 229.854 60.4382C230.844 59.932 231.593 59.2717 232.165 58.4134C232.737 57.555 233.045 56.5866 233.089 55.5081V55.398H229.524V55.5081V55.4861Z" fill="white"/>
<path d="M233.881 49.3233H237.909V60.9224H241.607V49.3233H245.612V46.3521H233.881V49.3233Z" fill="white"/>
<path d="M250.873 46.3521H247.175V60.9224H250.873V46.3521Z" fill="white"/>
<path d="M263.705 47.0124C262.626 46.3961 261.35 46.088 259.875 46.088C258.4 46.088 257.146 46.3961 256.067 47.0124C254.989 47.6287 254.153 48.487 253.58 49.6095C253.008 50.732 252.7 52.0746 252.7 53.6153C252.7 55.1779 252.986 56.5205 253.58 57.643C254.175 58.7655 254.989 59.6459 256.067 60.2621C257.146 60.8784 258.422 61.1865 259.875 61.1865C261.328 61.1865 262.648 60.8784 263.727 60.2621C264.805 59.6459 265.62 58.7875 266.214 57.643C266.808 56.5205 267.094 55.178 267.094 53.6373C267.094 52.0746 266.808 50.732 266.214 49.6095C265.642 48.487 264.805 47.6287 263.727 47.0124H263.705ZM263.287 53.6373C263.287 54.5397 263.154 55.332 262.868 56.0143C262.604 56.6746 262.208 57.2028 261.68 57.577C261.174 57.9511 260.557 58.1272 259.853 58.1272C259.149 58.1272 258.576 57.9511 258.048 57.577C257.542 57.2028 257.146 56.6966 256.86 56.0363C256.574 55.376 256.442 54.5837 256.442 53.6593C256.442 52.7129 256.574 51.9205 256.86 51.2603C257.146 50.6 257.542 50.0717 258.048 49.7196C258.554 49.3674 259.171 49.1693 259.831 49.1693C260.491 49.1693 261.13 49.3454 261.658 49.7196C262.186 50.0937 262.56 50.6 262.846 51.2603C263.133 51.9205 263.265 52.7129 263.265 53.6373H263.287Z" fill="white"/>
<path d="M277.901 46.3521V54.7597H277.835L272.002 46.3521H268.855V60.9224H272.574V52.4267H272.641L278.473 60.9224H281.598V46.3521H277.901Z" fill="white"/>
</svg>
