<svg width="170" height="70" viewBox="0 0 170 70" fill="none" xmlns="http://www.w3.org/2000/svg">
<path d="M56.1603 0.172993V60.4913L65.7558 55.0005V47.7772L72.0328 51.4022L81.6683 45.8848V0.159668H56.1736L56.1603 0.172993ZM65.7558 36.7158V9.84844H72.0328V40.2075L71.9262 40.2741L65.7558 36.7158Z" fill="white"/>
<path d="M9.63544 14.9126V9.86162H14.4998V17.7113L24.0953 23.2553V0.172852H0V45.9246L9.59546 51.4021L14.4998 54.2141L24.0953 59.7048V28.5195L14.4998 22.9888L11.5812 21.3096L11.6212 32.3977L14.4998 34.0636V43.006L9.63544 40.2207V31.2515V14.9126Z" fill="white"/>
<path d="M43.0597 17.658V9.86162H38.1687V20.31L43.0597 23.1354L52.6552 28.6661V62.5168L43.0597 68.0076L40.8208 69.287L38.1687 67.7677L28.5732 62.2636V31.1049L38.1687 36.649V56.5463L40.8208 58.0789L43.0597 56.7995V34.1968L38.1687 31.3715L28.5732 25.8274V0.172852H52.6552V23.202L43.0597 17.658Z" fill="white"/>
<path d="M100.393 4.13139H96.4613V5.71731H98.2204V5.82392C98.1938 6.11712 98.1005 6.37033 97.9406 6.58356C97.7806 6.7968 97.5807 6.97005 97.3142 7.07666C97.061 7.19661 96.7545 7.24992 96.4213 7.24992C95.9948 7.24992 95.6217 7.1433 95.3018 6.93007C94.982 6.71684 94.7421 6.39698 94.5688 5.98385C94.3956 5.57071 94.3023 5.07761 94.3023 4.50454C94.3023 3.93148 94.3823 3.43838 94.5422 3.0519C94.7021 2.65209 94.9286 2.35889 95.2352 2.14566C95.5417 1.93242 95.9015 1.83913 96.3147 1.83913C96.7278 1.83913 97.1143 1.94575 97.4075 2.14566C97.7007 2.34556 97.9139 2.62543 98.0339 2.98526L98.0605 3.0519H100.273V2.98526C100.193 2.41219 99.9796 1.90577 99.6198 1.45265C99.26 0.999529 98.8068 0.653027 98.2338 0.386486C97.674 0.133272 97.021 0 96.3014 0C95.4084 0 94.6488 0.186579 94.0091 0.546409C93.3694 0.90624 92.8763 1.42599 92.5164 2.10567C92.1699 2.78535 91.9967 3.5983 91.9967 4.55785C91.9967 5.53073 92.1699 6.357 92.5164 7.03668C92.8629 7.71636 93.3694 8.23612 94.0224 8.60928C94.6754 8.96911 95.4484 9.15569 96.3546 9.15569C97.1942 9.15569 97.9139 8.99576 98.5136 8.68924C99.1133 8.36939 99.5665 7.9296 99.8863 7.34321C100.206 6.75682 100.366 6.07714 100.366 5.26419V4.15804L100.393 4.13139Z" fill="white"/>
<path d="M103.751 5.93057H104.897L106.403 8.96914H108.922L107.163 5.5974C107.616 5.39749 107.989 5.06431 108.256 4.61119C108.522 4.15807 108.669 3.65164 108.669 3.07858C108.669 2.43888 108.536 1.91913 108.282 1.47934C108.029 1.03954 107.643 0.706367 107.15 0.479807C106.656 0.253247 106.043 0.133301 105.337 0.133301H101.512V8.95581H103.751V5.91724V5.93057ZM103.751 1.85249H105.071C105.47 1.85249 105.79 1.95911 106.017 2.18567C106.257 2.41223 106.377 2.70542 106.377 3.07858C106.377 3.46506 106.257 3.75826 106.03 3.98482C105.79 4.21138 105.484 4.318 105.084 4.318H103.751V1.85249Z" fill="white"/>
<path d="M112.214 7.03657H115.092L115.639 8.969H117.998L115.026 0.146484H112.28L109.308 8.969H111.667L112.214 7.03657ZM113.666 2.06558L114.626 5.41067H112.68L113.626 2.06558H113.666Z" fill="white"/>
<path d="M120.09 8.969H122.329V5.94375L125.368 0.146484H122.982L121.236 3.81143H121.183L119.437 0.146484H117.052L120.09 5.94375V8.969Z" fill="white"/>
<path d="M96.6478 17.6717L95.7416 17.4984C95.2618 17.4051 94.9286 17.2985 94.7021 17.1519C94.4755 17.0053 94.3822 16.8321 94.3822 16.5922C94.3822 16.4189 94.4355 16.2723 94.5288 16.139C94.6354 16.0058 94.7687 15.8992 94.9686 15.8192C95.1685 15.7392 95.3951 15.6993 95.6616 15.6993C95.9282 15.6993 96.168 15.7392 96.3813 15.8192C96.5812 15.8992 96.7544 16.0058 96.8877 16.139C97.0209 16.2723 97.0876 16.4456 97.1143 16.6455V16.7121H99.2066V16.5788C99.18 16.0458 99.02 15.5793 98.7402 15.1795C98.4603 14.7797 98.0605 14.4732 97.5407 14.2599C97.021 14.0467 96.3946 13.9268 95.6616 13.9268C94.9819 13.9268 94.3822 14.0467 93.8624 14.2733C93.3427 14.4998 92.9162 14.833 92.623 15.2461C92.3298 15.6593 92.1699 16.1524 92.1699 16.7254C92.1699 17.4051 92.3965 17.9648 92.8496 18.3913C93.3027 18.8178 93.9691 19.111 94.8353 19.2709L95.7416 19.4442C96.2613 19.5374 96.6211 19.6574 96.8477 19.7907C97.0609 19.9239 97.1676 20.1238 97.1676 20.3637C97.1676 20.5503 97.1143 20.7102 96.9943 20.8568C96.8744 20.9901 96.7145 21.11 96.5012 21.19C96.288 21.27 96.0348 21.3099 95.7282 21.3099C95.4217 21.3099 95.1818 21.27 94.9553 21.19C94.7287 21.11 94.5288 21.0034 94.3822 20.8568C94.2356 20.7102 94.1423 20.5503 94.1023 20.3637V20.2971H92.01V20.4037C92.05 20.9634 92.2232 21.4432 92.5297 21.843C92.8363 22.2428 93.2494 22.536 93.7958 22.7493C94.3422 22.9625 94.9686 23.0691 95.7016 23.0691C96.4746 23.0691 97.1409 22.9492 97.7006 22.7226C98.2604 22.496 98.6735 22.1495 98.9667 21.7231C99.2599 21.2966 99.4065 20.7769 99.4065 20.1905C99.4065 19.4708 99.18 18.9244 98.7402 18.5246C98.3004 18.1248 97.6074 17.8316 96.6745 17.6583H96.6478V17.6717Z" fill="white"/>
<path d="M102.672 19.3775H106.177V22.9358H108.429V14.1133H106.177V17.5783H102.672V14.1133H100.419V22.9358H102.672V19.3775Z" fill="white"/>
<path d="M112.174 21.0034H115.052L115.599 22.9358H117.958L114.986 14.1133H112.241L109.269 22.9358H111.627L112.174 21.0034ZM113.627 16.0324L114.586 19.3775H112.64L113.587 16.0324H113.627Z" fill="white"/>
<path d="M126.101 20.8833C126.434 20.2169 126.607 19.4173 126.607 18.4844C126.607 17.5382 126.434 16.7386 126.101 16.0989C125.767 15.4592 125.288 14.9661 124.648 14.6329C124.022 14.2997 123.262 14.1265 122.369 14.1265H118.784V22.949H122.369C123.262 22.949 124.022 22.7757 124.648 22.4159C125.274 22.0694 125.754 21.5496 126.087 20.8833H126.101ZM124.315 18.4844C124.315 19.0708 124.235 19.5639 124.062 19.9504C123.888 20.3369 123.635 20.6301 123.302 20.83C122.969 21.0299 122.556 21.1232 122.076 21.1232H121.023V15.9256H122.076C122.542 15.9256 122.942 16.0189 123.289 16.2188C123.622 16.4187 123.875 16.6986 124.048 17.0717C124.221 17.4449 124.315 17.9114 124.315 18.4711V18.4844Z" fill="white"/>
<path d="M135.629 20.9635C135.989 20.2838 136.163 19.4709 136.163 18.538C136.163 17.5918 135.989 16.7788 135.629 16.0991C135.283 15.4194 134.777 14.8997 134.123 14.5265C133.47 14.1534 132.698 13.9668 131.805 13.9668C130.912 13.9668 130.152 14.1534 129.499 14.5265C128.846 14.8997 128.34 15.4194 127.993 16.0991C127.647 16.7788 127.46 17.5918 127.46 18.5247C127.46 19.4709 127.633 20.2838 127.993 20.9635C128.353 21.6432 128.846 22.1763 129.499 22.5494C130.152 22.9226 130.925 23.1092 131.805 23.1092C132.684 23.1092 133.484 22.9226 134.137 22.5494C134.79 22.1763 135.283 21.6565 135.643 20.9635H135.629ZM133.87 18.538C133.87 19.0844 133.79 19.5642 133.617 19.9773C133.457 20.3771 133.217 20.697 132.897 20.9235C132.591 21.1501 132.218 21.2567 131.791 21.2567C131.365 21.2567 131.018 21.1501 130.698 20.9235C130.392 20.697 130.152 20.3904 129.979 19.9906C129.806 19.5908 129.726 19.111 129.726 18.5513C129.726 17.9782 129.806 17.4985 129.979 17.0987C130.152 16.6988 130.392 16.379 130.698 16.1658C131.005 15.9525 131.378 15.8326 131.778 15.8326C132.178 15.8326 132.564 15.9392 132.884 16.1658C133.204 16.3923 133.431 16.6988 133.604 17.0987C133.777 17.4985 133.857 17.9782 133.857 18.538H133.87Z" fill="white"/>
<path d="M144.865 19.9372H144.825L143.399 14.1133H141.507L140.081 19.9372H140.041L138.841 14.1133H136.522L138.828 22.9358H141.04L142.426 17.6449H142.48L143.866 22.9358H146.078L148.384 14.1133H146.065L144.865 19.9372Z" fill="white"/>
<path d="M150.649 22.7758C151.195 22.989 151.822 23.0956 152.555 23.0956C153.328 23.0956 153.994 22.9757 154.554 22.7491C155.114 22.5226 155.527 22.1761 155.82 21.7496C156.113 21.3231 156.26 20.8034 156.26 20.217C156.26 19.4973 156.033 18.9509 155.593 18.5511C155.154 18.1513 154.461 17.8581 153.528 17.6848L152.621 17.5116C152.142 17.4183 151.809 17.3117 151.582 17.1651C151.355 17.0185 151.262 16.8452 151.262 16.6054C151.262 16.4321 151.315 16.2855 151.409 16.1522C151.515 16.019 151.649 15.9123 151.849 15.8324C152.048 15.7524 152.275 15.7124 152.541 15.7124C152.808 15.7124 153.048 15.7524 153.261 15.8324C153.461 15.9123 153.634 16.019 153.768 16.1522C153.901 16.2855 153.967 16.4588 153.994 16.6587V16.7253H156.086V16.592C156.06 16.0589 155.9 15.5925 155.62 15.1927C155.34 14.7929 154.94 14.4864 154.421 14.2731C153.901 14.0599 153.274 13.9399 152.541 13.9399C151.862 13.9399 151.262 14.0599 150.742 14.2864C150.223 14.513 149.796 14.8462 149.503 15.2593C149.21 15.6725 149.05 16.1656 149.05 16.7386C149.05 17.4183 149.276 17.978 149.73 18.4045C150.183 18.831 150.849 19.1242 151.715 19.2841L152.621 19.4573C153.141 19.5506 153.501 19.6706 153.728 19.8038C153.941 19.9371 154.047 20.137 154.047 20.3769C154.047 20.5635 153.994 20.7234 153.874 20.87C153.754 21.0033 153.594 21.1232 153.381 21.2032C153.168 21.2831 152.915 21.3231 152.608 21.3231C152.302 21.3231 152.062 21.2831 151.835 21.2032C151.609 21.1232 151.409 21.0166 151.262 20.87C151.116 20.7234 151.022 20.5635 150.982 20.3769V20.3103H148.89V20.4169C148.93 20.9766 149.103 21.4564 149.41 21.8562C149.716 22.256 150.129 22.5492 150.676 22.7625H150.649V22.7758Z" fill="white"/>
<path d="M97.7406 28.4534C97.2608 28.2002 96.6878 28.0669 96.0347 28.0669H92.2765V36.8894H94.5154V34.304H96.0347C96.6878 34.304 97.2608 34.1707 97.7406 33.9175C98.2337 33.6643 98.6069 33.3044 98.8734 32.838C99.1399 32.3715 99.2732 31.8251 99.2732 31.1988C99.2732 30.5591 99.1399 29.9993 98.8734 29.5329C98.6069 29.0664 98.2337 28.7066 97.7406 28.4401V28.4534ZM97.0076 31.2121C97.0076 31.6652 96.8743 32.0117 96.6078 32.2516C96.3412 32.4915 95.9681 32.6114 95.5017 32.6114H94.5288V29.7994H95.5017C95.9814 29.7994 96.3412 29.9194 96.6078 30.1592C96.8743 30.3991 97.0076 30.7456 97.0076 31.1988V31.2121Z" fill="white"/>
<path d="M107.016 32.5311C107.296 32.078 107.429 31.5716 107.429 30.9985C107.429 30.3588 107.296 29.8391 107.043 29.3993C106.79 28.9595 106.403 28.6263 105.91 28.3997C105.417 28.1732 104.804 28.0532 104.098 28.0532H100.273V36.8757H102.512V33.8372H103.658L105.164 36.8757H107.683L105.923 33.504C106.376 33.3041 106.75 32.9709 107.016 32.5178V32.5311ZM105.137 31.0118C105.137 31.385 105.017 31.6782 104.791 31.9048C104.551 32.1313 104.244 32.2379 103.844 32.2379H102.512V29.7724H103.831C104.231 29.7724 104.551 29.879 104.777 30.1056C105.017 30.3322 105.137 30.6254 105.137 30.9985V31.0118Z" fill="white"/>
<path d="M114.972 28.4665C114.319 28.0933 113.547 27.9067 112.654 27.9067C111.761 27.9067 111.001 28.0933 110.348 28.4665C109.695 28.8396 109.189 29.3594 108.842 30.0391C108.496 30.7187 108.309 31.5317 108.309 32.4646C108.309 33.4108 108.482 34.2238 108.842 34.9034C109.202 35.5831 109.695 36.1162 110.348 36.4894C111.001 36.8625 111.774 37.0491 112.654 37.0491C113.533 37.0491 114.333 36.8625 114.986 36.4894C115.639 36.1162 116.132 35.5964 116.492 34.9034C116.852 34.2238 117.025 33.4108 117.025 32.4779C117.025 31.5317 116.852 30.7187 116.492 30.0391C116.145 29.3594 115.639 28.8396 114.986 28.4665H114.972ZM114.719 32.4779C114.719 33.0243 114.639 33.5041 114.466 33.9172C114.306 34.317 114.066 34.6369 113.746 34.8635C113.44 35.09 113.067 35.1966 112.64 35.1966C112.214 35.1966 111.867 35.09 111.547 34.8635C111.241 34.6369 111.001 34.3304 110.828 33.9306C110.655 33.5308 110.575 33.051 110.575 32.4912C110.575 31.9182 110.655 31.4384 110.828 31.0386C111.001 30.6388 111.241 30.3189 111.547 30.1057C111.854 29.8925 112.227 29.7725 112.627 29.7725C113.027 29.7725 113.413 29.8791 113.733 30.1057C114.053 30.3323 114.28 30.6388 114.453 31.0386C114.626 31.4384 114.706 31.9182 114.706 32.4779H114.719Z" fill="white"/>
<path d="M117.251 29.866H119.69V36.8894H121.929V29.866H124.355V28.0669H117.251V29.866Z" fill="white"/>
<path d="M125.301 36.8894H131.352V35.0903H127.553V33.3044H131.125V31.6119H127.553V29.866H131.352V28.0669H125.301V36.8894Z" fill="white"/>
<path d="M138.468 33.5974C138.415 33.9306 138.308 34.2104 138.148 34.4503C137.988 34.6902 137.775 34.8768 137.522 34.9967C137.269 35.1167 136.976 35.1833 136.656 35.1833C136.243 35.1833 135.896 35.0767 135.59 34.8635C135.283 34.6502 135.056 34.3304 134.897 33.9306C134.737 33.5174 134.657 33.0377 134.657 32.4646C134.657 31.8915 134.737 31.4117 134.897 31.0119C135.056 30.6121 135.296 30.3056 135.59 30.0924C135.883 29.8791 136.243 29.7725 136.642 29.7725C136.989 29.7725 137.282 29.8392 137.535 29.9724C137.788 30.1057 137.988 30.2923 138.148 30.5322C138.308 30.772 138.402 31.0386 138.455 31.3451V31.4251H140.627V31.3718C140.601 30.7054 140.414 30.119 140.081 29.5993C139.734 29.0795 139.281 28.6664 138.681 28.3599C138.095 28.0533 137.415 27.9067 136.642 27.9067C135.763 27.9067 135.003 28.0933 134.363 28.4531C133.724 28.813 133.217 29.3327 132.871 30.0124C132.524 30.6921 132.351 31.5184 132.351 32.4646C132.351 33.4241 132.524 34.2504 132.871 34.9301C133.217 35.6098 133.71 36.1295 134.35 36.5027C134.99 36.8625 135.749 37.0491 136.629 37.0491C137.389 37.0491 138.068 36.9025 138.668 36.596C139.268 36.2895 139.721 35.8896 140.067 35.3699C140.414 34.8501 140.601 34.2637 140.627 33.6107V33.5441H138.468V33.6107V33.5974Z" fill="white"/>
<path d="M141.107 29.866H143.546V36.8894H145.785V29.866H148.21V28.0669H141.107V29.866Z" fill="white"/>
<path d="M151.395 28.0669H149.156V36.8894H151.395V28.0669Z" fill="white"/>
<path d="M159.165 28.4665C158.512 28.0933 157.739 27.9067 156.846 27.9067C155.953 27.9067 155.194 28.0933 154.541 28.4665C153.887 28.8396 153.381 29.3594 153.035 30.0391C152.688 30.7187 152.501 31.5317 152.501 32.4646C152.501 33.4108 152.675 34.2238 153.035 34.9034C153.394 35.5831 153.887 36.1162 154.541 36.4894C155.194 36.8625 155.967 37.0491 156.846 37.0491C157.726 37.0491 158.525 36.8625 159.178 36.4894C159.831 36.1162 160.324 35.5964 160.684 34.9034C161.044 34.2238 161.217 33.4108 161.217 32.4779C161.217 31.5317 161.044 30.7187 160.684 30.0391C160.338 29.3594 159.831 28.8396 159.178 28.4665H159.165ZM158.912 32.4779C158.912 33.0243 158.832 33.5041 158.659 33.9172C158.499 34.317 158.259 34.6369 157.939 34.8635C157.632 35.09 157.259 35.1966 156.833 35.1966C156.406 35.1966 156.06 35.09 155.74 34.8635C155.433 34.6369 155.194 34.3304 155.02 33.9306C154.847 33.5308 154.767 33.051 154.767 32.4912C154.767 31.9182 154.847 31.4384 155.02 31.0386C155.194 30.6388 155.433 30.3189 155.74 30.1057C156.046 29.8925 156.42 29.7725 156.819 29.7725C157.219 29.7725 157.606 29.8791 157.926 30.1057C158.245 30.3323 158.472 30.6388 158.645 31.0386C158.819 31.4384 158.898 31.9182 158.898 32.4779H158.912Z" fill="white"/>
<path d="M167.761 28.0669V33.1578H167.721L164.189 28.0669H162.284V36.8894H164.536V31.7452H164.576L168.108 36.8894H170V28.0669H167.761Z" fill="white"/>
</svg>
